solid 6 piece burr puzzle
facet normal 0.0 0.0 1.0
outer loop
vertex 145.6 0.0 25.0
vertex 120.6 12.5 25.0
vertex 120.6 0.0 25.0
endloop
endfacet
facet normal 0.0 0.0 1.0
outer loop
vertex 120.6 12.5 25.0
vertex 145.6 0.0 25.0
vertex 145.6 12.5 25.0
endloop
endfacet
facet normal 0.0 1.0 0.0
outer loop
vertex 120.6 75.0 25.0
vertex 145.6 75.0 0.0
vertex 120.6 75.0 0.0
endloop
endfacet
facet normal 0.0 1.0 0.0
outer loop
vertex 145.6 75.0 0.0
vertex 120.6 75.0 25.0
vertex 145.6 75.0 25.0
endloop
endfacet
facet normal 0.0 -1.0 0.0
outer loop
vertex 145.6 62.5 25.0
vertex 120.6 62.5 12.5
vertex 145.6 62.5 12.5
endloop
endfacet
facet normal 0.0 -1.0 0.0
outer loop
vertex 120.6 62.5 12.5
vertex 145.6 62.5 25.0
vertex 120.6 62.5 25.0
endloop
endfacet
facet normal 1.0 0.0 0.0
outer loop
vertex 145.6 0.0 0.0
vertex 145.6 12.5 12.5
vertex 145.6 0.0 25.0
endloop
endfacet
facet normal 1.0 0.0 0.0
outer loop
vertex 145.6 12.5 12.5
vertex 145.6 0.0 0.0
vertex 145.6 75.0 0.0
endloop
endfacet
facet normal 1.0 0.0 0.0
outer loop
vertex 145.6 12.5 12.5
vertex 145.6 75.0 0.0
vertex 145.6 62.5 12.5
endloop
endfacet
facet normal 1.0 0.0 0.0
outer loop
vertex 145.6 62.5 12.5
vertex 145.6 75.0 0.0
vertex 145.6 62.5 25.0
endloop
endfacet
facet normal 1.0 0.0 0.0
outer loop
vertex 145.6 62.5 25.0
vertex 145.6 75.0 0.0
vertex 145.6 75.0 25.0
endloop
endfacet
facet normal 1.0 0.0 0.0
outer loop
vertex 145.6 12.5 25.0
vertex 145.6 0.0 25.0
vertex 145.6 12.5 12.5
endloop
endfacet
facet normal 0.0 -1.0 0.0
outer loop
vertex 145.6 0.0 25.0
vertex 120.6 0.0 0.0
vertex 145.6 0.0 0.0
endloop
endfacet
facet normal 0.0 -1.0 0.0
outer loop
vertex 120.6 0.0 0.0
vertex 145.6 0.0 25.0
vertex 120.6 0.0 25.0
endloop
endfacet
facet normal -1.0 0.0 0.0
outer loop
vertex 120.6 75.0 25.0
vertex 120.6 62.5 12.5
vertex 120.6 62.5 25.0
endloop
endfacet
facet normal -1.0 0.0 0.0
outer loop
vertex 120.6 12.5 25.0
vertex 120.6 0.0 0.0
vertex 120.6 0.0 25.0
endloop
endfacet
facet normal -1.0 0.0 0.0
outer loop
vertex 120.6 0.0 0.0
vertex 120.6 12.5 25.0
vertex 120.6 12.5 12.5
endloop
endfacet
facet normal -1.0 0.0 0.0
outer loop
vertex 120.6 0.0 0.0
vertex 120.6 12.5 12.5
vertex 120.6 75.0 0.0
endloop
endfacet
facet normal -1.0 0.0 0.0
outer loop
vertex 120.6 75.0 0.0
vertex 120.6 12.5 12.5
vertex 120.6 62.5 12.5
endloop
endfacet
facet normal -1.0 0.0 0.0
outer loop
vertex 120.6 75.0 0.0
vertex 120.6 62.5 12.5
vertex 120.6 75.0 25.0
endloop
endfacet
facet normal 0.0 0.0 1.0
outer loop
vertex 145.6 12.5 12.5
vertex 120.6 62.5 12.5
vertex 120.6 12.5 12.5
endloop
endfacet
facet normal 0.0 0.0 1.0
outer loop
vertex 120.6 62.5 12.5
vertex 145.6 12.5 12.5
vertex 145.6 62.5 12.5
endloop
endfacet
facet normal 0.0 1.0 0.0
outer loop
vertex 120.6 12.5 25.0
vertex 145.6 12.5 12.5
vertex 120.6 12.5 12.5
endloop
endfacet
facet normal 0.0 1.0 0.0
outer loop
vertex 145.6 12.5 12.5
vertex 120.6 12.5 25.0
vertex 145.6 12.5 25.0
endloop
endfacet
facet normal 0.0 0.0 1.0
outer loop
vertex 145.6 62.5 25.0
vertex 120.6 75.0 25.0
vertex 120.6 62.5 25.0
endloop
endfacet
facet normal 0.0 0.0 1.0
outer loop
vertex 120.6 75.0 25.0
vertex 145.6 62.5 25.0
vertex 145.6 75.0 25.0
endloop
endfacet
facet normal 0.0 0.0 -1.0
outer loop
vertex 145.6 75.0 0.0
vertex 120.6 0.0 0.0
vertex 120.6 75.0 0.0
endloop
endfacet
facet normal 0.0 0.0 -1.0
outer loop
vertex 120.6 0.0 0.0
vertex 145.6 75.0 0.0
vertex 145.6 0.0 0.0
endloop
endfacet
endsolid 6 piece burr puzzle
