solid 6 piece burr puzzle
facet normal 0.0 0.0 -1.0
outer loop
vertex 25.0 75.0 0.0
vertex 0.0 0.0 0.0
vertex 0.0 75.0 0.0
endloop
endfacet
facet normal 0.0 0.0 -1.0
outer loop
vertex 0.0 0.0 0.0
vertex 25.0 75.0 0.0
vertex 25.0 0.0 0.0
endloop
endfacet
facet normal 0.0 0.0 1.0
outer loop
vertex 0.0 12.5 12.5
vertex 12.5 25.0 12.5
vertex 0.0 62.5 12.5
endloop
endfacet
facet normal 0.0 0.0 1.0
outer loop
vertex 12.5 25.0 12.5
vertex 0.0 12.5 12.5
vertex 25.0 12.5 12.5
endloop
endfacet
facet normal 0.0 0.0 1.0
outer loop
vertex 12.5 25.0 12.5
vertex 25.0 12.5 12.5
vertex 25.0 25.0 12.5
endloop
endfacet
facet normal 0.0 0.0 1.0
outer loop
vertex 0.0 62.5 12.5
vertex 12.5 50.0 12.5
vertex 25.0 62.5 12.5
endloop
endfacet
facet normal 0.0 0.0 1.0
outer loop
vertex 12.5 50.0 12.5
vertex 0.0 62.5 12.5
vertex 12.5 25.0 12.5
endloop
endfacet
facet normal 0.0 0.0 1.0
outer loop
vertex 25.0 62.5 12.5
vertex 12.5 50.0 12.5
vertex 25.0 50.0 12.5
endloop
endfacet
facet normal -0.0 -1.0 -0.0
outer loop
vertex 25.0 25.0 25.0
vertex 12.5 25.0 12.5
vertex 25.0 25.0 12.5
endloop
endfacet
facet normal -0.0 -1.0 -0.0
outer loop
vertex 12.5 25.0 12.5
vertex 25.0 25.0 25.0
vertex 12.5 25.0 25.0
endloop
endfacet
facet normal -1.0 0.0 0.0
outer loop
vertex 12.5 50.0 25.0
vertex 12.5 25.0 12.5
vertex 12.5 25.0 25.0
endloop
endfacet
facet normal -1.0 0.0 0.0
outer loop
vertex 12.5 25.0 12.5
vertex 12.5 50.0 25.0
vertex 12.5 50.0 12.5
endloop
endfacet
facet normal 0.0 1.0 0.0
outer loop
vertex 12.5 50.0 25.0
vertex 25.0 50.0 12.5
vertex 12.5 50.0 12.5
endloop
endfacet
facet normal 0.0 1.0 0.0
outer loop
vertex 25.0 50.0 12.5
vertex 12.5 50.0 25.0
vertex 25.0 50.0 25.0
endloop
endfacet
facet normal -0.0 -1.0 -0.0
outer loop
vertex 25.0 62.5 25.0
vertex 0.0 62.5 12.5
vertex 25.0 62.5 12.5
endloop
endfacet
facet normal -0.0 -1.0 -0.0
outer loop
vertex 0.0 62.5 12.5
vertex 25.0 62.5 25.0
vertex 0.0 62.5 25.0
endloop
endfacet
facet normal 0.0 1.0 0.0
outer loop
vertex 0.0 12.5 25.0
vertex 25.0 12.5 12.5
vertex 0.0 12.5 12.5
endloop
endfacet
facet normal 0.0 1.0 0.0
outer loop
vertex 25.0 12.5 12.5
vertex 0.0 12.5 25.0
vertex 25.0 12.5 25.0
endloop
endfacet
facet normal -0.0 -1.0 -0.0
outer loop
vertex 25.0 0.0 25.0
vertex 0.0 0.0 0.0
vertex 25.0 0.0 0.0
endloop
endfacet
facet normal -0.0 -1.0 -0.0
outer loop
vertex 0.0 0.0 0.0
vertex 25.0 0.0 25.0
vertex 0.0 0.0 25.0
endloop
endfacet
facet normal -1.0 0.0 0.0
outer loop
vertex 0.0 75.0 25.0
vertex 0.0 62.5 12.5
vertex 0.0 62.5 25.0
endloop
endfacet
facet normal -1.0 0.0 0.0
outer loop
vertex 0.0 12.5 25.0
vertex 0.0 0.0 0.0
vertex 0.0 0.0 25.0
endloop
endfacet
facet normal -1.0 0.0 0.0
outer loop
vertex 0.0 0.0 0.0
vertex 0.0 12.5 25.0
vertex 0.0 12.5 12.5
endloop
endfacet
facet normal -1.0 0.0 0.0
outer loop
vertex 0.0 0.0 0.0
vertex 0.0 12.5 12.5
vertex 0.0 75.0 0.0
endloop
endfacet
facet normal -1.0 0.0 0.0
outer loop
vertex 0.0 75.0 0.0
vertex 0.0 12.5 12.5
vertex 0.0 62.5 12.5
endloop
endfacet
facet normal -1.0 0.0 0.0
outer loop
vertex 0.0 75.0 0.0
vertex 0.0 62.5 12.5
vertex 0.0 75.0 25.0
endloop
endfacet
facet normal 0.0 1.0 0.0
outer loop
vertex 0.0 75.0 25.0
vertex 25.0 75.0 0.0
vertex 0.0 75.0 0.0
endloop
endfacet
facet normal 0.0 1.0 0.0
outer loop
vertex 25.0 75.0 0.0
vertex 0.0 75.0 25.0
vertex 25.0 75.0 25.0
endloop
endfacet
facet normal 1.0 0.0 0.0
outer loop
vertex 25.0 0.0 0.0
vertex 25.0 12.5 12.5
vertex 25.0 0.0 25.0
endloop
endfacet
facet normal 1.0 0.0 0.0
outer loop
vertex 25.0 12.5 12.5
vertex 25.0 0.0 0.0
vertex 25.0 75.0 0.0
endloop
endfacet
facet normal 1.0 0.0 0.0
outer loop
vertex 25.0 12.5 12.5
vertex 25.0 75.0 0.0
vertex 25.0 25.0 12.5
endloop
endfacet
facet normal 1.0 0.0 0.0
outer loop
vertex 25.0 25.0 12.5
vertex 25.0 75.0 0.0
vertex 25.0 25.0 25.0
endloop
endfacet
facet normal 1.0 0.0 0.0
outer loop
vertex 25.0 25.0 25.0
vertex 25.0 75.0 0.0
vertex 25.0 50.0 12.5
endloop
endfacet
facet normal 1.0 0.0 0.0
outer loop
vertex 25.0 50.0 12.5
vertex 25.0 75.0 0.0
vertex 25.0 62.5 12.5
endloop
endfacet
facet normal 1.0 0.0 0.0
outer loop
vertex 25.0 62.5 12.5
vertex 25.0 75.0 0.0
vertex 25.0 62.5 25.0
endloop
endfacet
facet normal 1.0 0.0 0.0
outer loop
vertex 25.0 62.5 25.0
vertex 25.0 75.0 0.0
vertex 25.0 75.0 25.0
endloop
endfacet
facet normal 1.0 0.0 0.0
outer loop
vertex 25.0 50.0 25.0
vertex 25.0 25.0 25.0
vertex 25.0 50.0 12.5
endloop
endfacet
facet normal 1.0 0.0 0.0
outer loop
vertex 25.0 12.5 25.0
vertex 25.0 0.0 25.0
vertex 25.0 12.5 12.5
endloop
endfacet
facet normal 0.0 0.0 1.0
outer loop
vertex 25.0 62.5 25.0
vertex 0.0 75.0 25.0
vertex 0.0 62.5 25.0
endloop
endfacet
facet normal 0.0 0.0 1.0
outer loop
vertex 0.0 75.0 25.0
vertex 25.0 62.5 25.0
vertex 25.0 75.0 25.0
endloop
endfacet
facet normal 0.0 0.0 1.0
outer loop
vertex 25.0 0.0 25.0
vertex 0.0 12.5 25.0
vertex 0.0 0.0 25.0
endloop
endfacet
facet normal 0.0 0.0 1.0
outer loop
vertex 0.0 12.5 25.0
vertex 25.0 0.0 25.0
vertex 25.0 12.5 25.0
endloop
endfacet
facet normal 0.0 0.0 1.0
outer loop
vertex 25.0 25.0 25.0
vertex 12.5 50.0 25.0
vertex 12.5 25.0 25.0
endloop
endfacet
facet normal 0.0 0.0 1.0
outer loop
vertex 12.5 50.0 25.0
vertex 25.0 25.0 25.0
vertex 25.0 50.0 25.0
endloop
endfacet
endsolid 6 piece burr puzzle
