solid 6 piece burr puzzle
facet normal 0.0 -1.0 0.0
outer loop
vertex 85.0 -1.12798659301916e-14 25.0
vertex 60.0 -1.12798659301916e-14 0.0
vertex 85.0 -1.12798659301916e-14 0.0
endloop
endfacet
facet normal 0.0 -1.0 0.0
outer loop
vertex 60.0 -1.12798659301916e-14 0.0
vertex 85.0 -1.12798659301916e-14 25.0
vertex 60.0 -1.12798659301916e-14 25.0
endloop
endfacet
facet normal 0.0 1.0 0.0
outer loop
vertex 60.0 75.0 25.0
vertex 85.0 75.0 0.0
vertex 60.0 75.0 0.0
endloop
endfacet
facet normal 0.0 1.0 0.0
outer loop
vertex 85.0 75.0 0.0
vertex 60.0 75.0 25.0
vertex 85.0 75.0 25.0
endloop
endfacet
facet normal 1.0 0.0 0.0
outer loop
vertex 85.0 -1.12798659301916e-14 0.0
vertex 85.0 25.0 12.5
vertex 85.0 -1.12798659301916e-14 25.0
endloop
endfacet
facet normal 1.0 0.0 0.0
outer loop
vertex 85.0 25.0 12.5
vertex 85.0 -1.12798659301916e-14 0.0
vertex 85.0 75.0 0.0
endloop
endfacet
facet normal 1.0 0.0 0.0
outer loop
vertex 85.0 25.0 12.5
vertex 85.0 75.0 0.0
vertex 85.0 50.0 12.5
endloop
endfacet
facet normal 1.0 0.0 0.0
outer loop
vertex 85.0 50.0 12.5
vertex 85.0 75.0 0.0
vertex 85.0 50.0 25.0
endloop
endfacet
facet normal 1.0 0.0 0.0
outer loop
vertex 85.0 50.0 25.0
vertex 85.0 75.0 0.0
vertex 85.0 75.0 25.0
endloop
endfacet
facet normal 1.0 0.0 0.0
outer loop
vertex 85.0 25.0 25.0
vertex 85.0 -1.12798659301916e-14 25.0
vertex 85.0 25.0 12.5
endloop
endfacet
facet normal -1.0 0.0 0.0
outer loop
vertex 60.0 75.0 25.0
vertex 60.0 62.5 12.5
vertex 60.0 62.5 25.0
endloop
endfacet
facet normal -1.0 0.0 0.0
outer loop
vertex 60.0 62.5 12.5
vertex 60.0 50.0 0.0
vertex 60.0 50.0 12.5
endloop
endfacet
facet normal -1.0 0.0 0.0
outer loop
vertex 60.0 50.0 0.0
vertex 60.0 62.5 12.5
vertex 60.0 75.0 0.0
endloop
endfacet
facet normal -1.0 0.0 0.0
outer loop
vertex 60.0 75.0 0.0
vertex 60.0 62.5 12.5
vertex 60.0 75.0 25.0
endloop
endfacet
facet normal 0.0 0.0 -1.0
outer loop
vertex 85.0 75.0 0.0
vertex 60.0 50.0 0.0
vertex 60.0 75.0 0.0
endloop
endfacet
facet normal 0.0 0.0 -1.0
outer loop
vertex 60.0 50.0 0.0
vertex 85.0 75.0 0.0
vertex 72.5 50.0 0.0
endloop
endfacet
facet normal 0.0 0.0 -1.0
outer loop
vertex 72.5 50.0 0.0
vertex 85.0 75.0 0.0
vertex 72.5 25.0 0.0
endloop
endfacet
facet normal 0.0 0.0 -1.0
outer loop
vertex 72.5 25.0 0.0
vertex 60.0 -1.12798659301916e-14 0.0
vertex 60.0 25.0 0.0
endloop
endfacet
facet normal 0.0 0.0 -1.0
outer loop
vertex 60.0 -1.12798659301916e-14 0.0
vertex 72.5 25.0 0.0
vertex 85.0 -1.12798659301916e-14 0.0
endloop
endfacet
facet normal 0.0 0.0 -1.0
outer loop
vertex 85.0 -1.12798659301916e-14 0.0
vertex 72.5 25.0 0.0
vertex 85.0 75.0 0.0
endloop
endfacet
facet normal 0.0 0.0 1.0
outer loop
vertex 85.0 -1.12798659301916e-14 25.0
vertex 60.0 12.5 25.0
vertex 60.0 -1.12798659301916e-14 25.0
endloop
endfacet
facet normal 0.0 0.0 1.0
outer loop
vertex 60.0 12.5 25.0
vertex 85.0 -1.12798659301916e-14 25.0
vertex 72.5 12.5 25.0
endloop
endfacet
facet normal 0.0 0.0 1.0
outer loop
vertex 72.5 12.5 25.0
vertex 85.0 -1.12798659301916e-14 25.0
vertex 72.5 25.0 25.0
endloop
endfacet
facet normal 0.0 0.0 1.0
outer loop
vertex 72.5 25.0 25.0
vertex 85.0 -1.12798659301916e-14 25.0
vertex 85.0 25.0 25.0
endloop
endfacet
facet normal -1.0 0.0 0.0
outer loop
vertex 72.5 62.5 25.0
vertex 72.5 50.0 12.5
vertex 72.5 50.0 25.0
endloop
endfacet
facet normal -1.0 0.0 0.0
outer loop
vertex 72.5 50.0 12.5
vertex 72.5 62.5 25.0
vertex 72.5 62.5 12.5
endloop
endfacet
facet normal 0.0 -1.0 0.0
outer loop
vertex 72.5 62.5 25.0
vertex 60.0 62.5 12.5
vertex 72.5 62.5 12.5
endloop
endfacet
facet normal 0.0 -1.0 0.0
outer loop
vertex 60.0 62.5 12.5
vertex 72.5 62.5 25.0
vertex 60.0 62.5 25.0
endloop
endfacet
facet normal 0.0 1.0 0.0
outer loop
vertex 60.0 12.5 25.0
vertex 72.5 12.5 12.5
vertex 60.0 12.5 12.5
endloop
endfacet
facet normal 0.0 1.0 0.0
outer loop
vertex 72.5 12.5 12.5
vertex 60.0 12.5 25.0
vertex 72.5 12.5 25.0
endloop
endfacet
facet normal 0.0 1.0 0.0
outer loop
vertex 72.5 25.0 25.0
vertex 85.0 25.0 12.5
vertex 72.5 25.0 12.5
endloop
endfacet
facet normal 0.0 1.0 0.0
outer loop
vertex 85.0 25.0 12.5
vertex 72.5 25.0 25.0
vertex 85.0 25.0 25.0
endloop
endfacet
facet normal 0.0 -1.0 0.0
outer loop
vertex 85.0 50.0 25.0
vertex 72.5 50.0 12.5
vertex 85.0 50.0 12.5
endloop
endfacet
facet normal 0.0 -1.0 0.0
outer loop
vertex 72.5 50.0 12.5
vertex 85.0 50.0 25.0
vertex 72.5 50.0 25.0
endloop
endfacet
facet normal -1.0 0.0 0.0
outer loop
vertex 72.5 25.0 25.0
vertex 72.5 12.5 12.5
vertex 72.5 12.5 25.0
endloop
endfacet
facet normal -1.0 0.0 0.0
outer loop
vertex 72.5 12.5 12.5
vertex 72.5 25.0 25.0
vertex 72.5 25.0 12.5
endloop
endfacet
facet normal 0.0 0.0 1.0
outer loop
vertex 85.0 25.0 12.5
vertex 72.5 50.0 12.5
vertex 72.5 25.0 12.5
endloop
endfacet
facet normal 0.0 0.0 1.0
outer loop
vertex 72.5 50.0 12.5
vertex 85.0 25.0 12.5
vertex 85.0 50.0 12.5
endloop
endfacet
facet normal 0.0 0.0 1.0
outer loop
vertex 72.5 50.0 12.5
vertex 60.0 62.5 12.5
vertex 60.0 50.0 12.5
endloop
endfacet
facet normal 0.0 0.0 1.0
outer loop
vertex 60.0 62.5 12.5
vertex 72.5 50.0 12.5
vertex 72.5 62.5 12.5
endloop
endfacet
facet normal 0.0 0.0 1.0
outer loop
vertex 85.0 50.0 25.0
vertex 72.5 62.5 25.0
vertex 72.5 50.0 25.0
endloop
endfacet
facet normal 0.0 0.0 1.0
outer loop
vertex 72.5 62.5 25.0
vertex 60.0 75.0 25.0
vertex 60.0 62.5 25.0
endloop
endfacet
facet normal 0.0 0.0 1.0
outer loop
vertex 60.0 75.0 25.0
vertex 72.5 62.5 25.0
vertex 85.0 75.0 25.0
endloop
endfacet
facet normal 0.0 0.0 1.0
outer loop
vertex 85.0 75.0 25.0
vertex 72.5 62.5 25.0
vertex 85.0 50.0 25.0
endloop
endfacet
facet normal -1.0 0.0 0.0
outer loop
vertex 60.0 12.5 25.0
vertex 60.0 -1.12798659301916e-14 0.0
vertex 60.0 -1.12798659301916e-14 25.0
endloop
endfacet
facet normal -1.0 0.0 0.0
outer loop
vertex 60.0 -1.12798659301916e-14 0.0
vertex 60.0 12.5 25.0
vertex 60.0 12.5 12.5
endloop
endfacet
facet normal -1.0 0.0 0.0
outer loop
vertex 60.0 -1.12798659301916e-14 0.0
vertex 60.0 12.5 12.5
vertex 60.0 25.0 0.0
endloop
endfacet
facet normal -1.0 0.0 0.0
outer loop
vertex 60.0 25.0 0.0
vertex 60.0 12.5 12.5
vertex 60.0 25.0 12.5
endloop
endfacet
facet normal 0.0 -1.0 0.0
outer loop
vertex 72.5 50.0 12.5
vertex 60.0 50.0 0.0
vertex 72.5 50.0 0.0
endloop
endfacet
facet normal 0.0 -1.0 0.0
outer loop
vertex 60.0 50.0 0.0
vertex 72.5 50.0 12.5
vertex 60.0 50.0 12.5
endloop
endfacet
facet normal 0.0 1.0 0.0
outer loop
vertex 60.0 25.0 12.5
vertex 72.5 25.0 0.0
vertex 60.0 25.0 0.0
endloop
endfacet
facet normal 0.0 1.0 0.0
outer loop
vertex 72.5 25.0 0.0
vertex 60.0 25.0 12.5
vertex 72.5 25.0 12.5
endloop
endfacet
facet normal 0.0 0.0 1.0
outer loop
vertex 72.5 12.5 12.5
vertex 60.0 25.0 12.5
vertex 60.0 12.5 12.5
endloop
endfacet
facet normal 0.0 0.0 1.0
outer loop
vertex 60.0 25.0 12.5
vertex 72.5 12.5 12.5
vertex 72.5 25.0 12.5
endloop
endfacet
facet normal -1.0 0.0 0.0
outer loop
vertex 72.5 50.0 12.5
vertex 72.5 25.0 0.0
vertex 72.5 25.0 12.5
endloop
endfacet
facet normal -1.0 0.0 0.0
outer loop
vertex 72.5 25.0 0.0
vertex 72.5 50.0 12.5
vertex 72.5 50.0 0.0
endloop
endfacet
endsolid 6 piece burr puzzle
